<svg xmlns="http://www.w3.org/2000/svg" viewBox="0 0 32 32">
  <path d="M28.7 7.2a28.4 28.4 0 0 0-5.9-5.9C21.2.1 20.4 0 20 0H4.5A2.5 2.5 0 0 0 2 2.5v27C2 30.9 3.1 32 4.5 32h23c1.4 0 2.5-1.1 2.5-2.5V10c0-.4-.1-1.2-1.3-2.8zm-4.2-1.7c1 1 1.8 1.8 2.3 2.5H22V3.2c.7.5 1.6 1.3 2.5 2.3zm3.5 24c0 .3-.2.5-.5.5h-23a.5.5 0 0 1-.5-.5v-27c0-.3.2-.5.5-.5H20v7c0 .6.4 1 1 1h7v19.5z"/>
  <path d="M8 2h4v2H8V2zM12 4h4v2h-4V4zM8 6h4v2H8V6zM12 8h4v2h-4V8zM8 10h4v2H8v-2zM12 12h4v2h-4v-2zM8 14h4v2H8v-2zM12 16h4v2h-4v-2zM8 26.5c0 .8.7 1.5 1.5 1.5h5c.8 0 1.5-.7 1.5-1.5v-5c0-.8-.7-1.5-1.5-1.5H12v-2H8v8.5zm6-2.5v2h-4v-2h4z"/>
</svg>
