<svg xmlns="http://www.w3.org/2000/svg" viewBox="0 0 24 24"><path d="M9.5 2a3 3 0 00-2 .7L6.5 4.2c-.6 1-1 2.3-1.3 3.3L3.8 8l-1.1.8a2 2 0 00-.7 1.4c0 .9.6 1.5 1.2 2L5 13l.1 1.3-4.5 2.3 3.5 6L6 21.4l-2.5-4 2.3-1.2c.4.8.8 1.6 1.4 2.4C8.3 20.4 9.9 22 12 22c2 0 3.7-1.5 5-3.3.5-.8 1-1.6 1.3-2.4l2.3 1.1-2.5 4 1.8 1.1 3.5-6-4.5-2.2.1-1.3c.7-.3 1.3-.5 1.8-.9.6-.4 1.2-1 1.2-1.9 0-.6-.3-1-.7-1.4L20.2 8l-1.3-.5c-.4-1-.8-2.3-1.4-3.3a5 5 0 00-1.1-1.5 3 3 0 00-1.9-.7c-1.1 0-1.7.3-2.5.3l-1-.1L9.4 2zm0 2l1 .1 1.5.2c1.2 0 1.7-.3 2.5-.3.3 0 .4 0 .6.2.2.2.5.5.7 1l1 2.4-.7.2a31.4 31.4 0 01-8.2 0l-.7-.2 1-2.4c.2-.4.4-.8.7-1l.6-.2zM6 9.3l1.6.4A32 32 0 0018 9.4l1.3.4.6.4-.2.3c-.4.2-1 .5-1.8.7a21.6 21.6 0 01-13.6-.7c-.3-.2-.2-.3-.2-.3l.6-.4L6 9.3zm1 4.2l.8.1a2 2 0 001.9 1.9c.8 0 1.8-.4 1.9-1.5h.8c.1 1.1 1 1.5 2 1.5a2 2 0 001.8-1.9h.8c-.2 1-.8 2.7-1.7 4-1 1.5-2.4 2.4-3.3 2.4-1 0-2.3-1-3.3-2.5a10 10 0 01-1.7-4z"/></svg>